<svg width="104" height="104" viewBox="0 0 104 104" xmlns="http://www.w3.org/2000/svg"><g fill="none" fill-rule="evenodd"><path d="M55 4.092V52h45c0 26.51-21.49 48-48 48S4 78.51 4 52 25.49 4 52 4c1.008 0 2.008.031 3 .092z" stroke="#C9D3FF" stroke-width="7"/><path d="M65 43V7c23.392 2.584 33.932 15.16 33.932 35.252 0 .25-.003.5-.008.748H65zM45.992 61v31C26.29 88.634 16 73.347 16 61.987c0-.325.013-.654.039-.987h29.953z" fill="#2F54EB"/><path d="M49.932 59v46.265a3 3 0 0 0 3 3h57.07-57.07a3 3 0 0 1-3-3V59z" fill="#FFF"/></g></svg>