<?xml version="1.0" encoding="UTF-8"?>
<svg width="104px" height="104px" viewBox="0 0 104 104" version="1.1" xmlns="http://www.w3.org/2000/svg" xmlns:xlink="http://www.w3.org/1999/xlink">
    <!-- Generator: Sketch 55.2 (78181) - https://sketchapp.com -->
    <title>编组 12</title>
    <desc>Created with Sketch.</desc>
    <g id="页面1" stroke="none" stroke-width="1" fill="none" fill-rule="evenodd">
        <g id="p002婴语识别" transform="translate(-970.000000, -1246.000000)">
            <g id="编组-13" transform="translate(232.000000, 1244.000000)">
                <g id="编组-12" transform="translate(742.000000, 6.000000)">
                    <g id="形状结合">
                        <path d="M51,0.0922259523 L51,48 L96,48 C96,74.509668 74.509668,96 48,96 C21.490332,96 0,74.509668 0,48 C0,21.490332 21.490332,0 48,0 C49.007552,0 50.0078534,0.0310434153 51,0.0922259523 Z" stroke="#C9D3FF" stroke-width="7"></path>
                        <path d="M61,39 L61,3 C84.3920395,5.58360946 94.9318549,18.1606978 94.9318549,38.2521377 C94.9318549,38.5025969 94.9292374,38.7518884 94.9240306,39.0000073 L61,39 Z" fill="#2F54EB"></path>
                        <path d="M12,88 L12,57 C31.701775,60.3659414 41.9919248,75.6525589 41.9919248,87.0132308 C41.9919248,87.3382451 41.9789097,87.6673059 41.9532491,88 L12,88 Z" fill="#2F54EB" transform="translate(26.995962, 72.500000) rotate(-180.000000) translate(-26.995962, -72.500000) "></path>
                        <path d="M65.0508455,-16.0000073 L65.0508455,-16.0000073 L65.0508455,-62.2649095 C65.0508455,-63.9217637 63.7076997,-65.2649095 62.0508455,-65.2649095 L4.98114777,-65.2649095 L62.0508455,-65.2649095 C63.7076997,-65.2649095 65.0508455,-63.9217637 65.0508455,-62.2649095 L65.0508455,-16.0000073 Z" fill="#FFFFFF" transform="translate(55.491350, 19.500000) rotate(-180.000000) translate(-55.491350, -19.500000) "></path>
                    </g>
                </g>
            </g>
        </g>
    </g>
</svg>