<?xml version="1.0" encoding="UTF-8"?>
<svg width="48px" height="74px" viewBox="0 0 48 74" version="1.1" xmlns="http://www.w3.org/2000/svg" xmlns:xlink="http://www.w3.org/1999/xlink">
    <!-- Generator: Sketch 55.2 (78181) - https://sketchapp.com -->
    <title>1</title>
    <desc>Created with Sketch.</desc>
    <g id="页面1" stroke="none" stroke-width="1" fill="none" fill-rule="evenodd">
        <g id="p002prompt" transform="translate(-306.000000, -1118.000000)">
            <g id="编组-17" transform="translate(287.000000, 1110.000000)">
                <g id="1">
                    <g id="语音">
                        <rect id="矩形" fill="#000000" fill-rule="nonzero" opacity="0" x="0" y="0" width="85" height="85"></rect>
                        <path d="M50.499498,54 C44.1705008,54.021521 39.0221409,48.9253767 39,42.6170618 L39,26.3558222 C39.0589524,20.0670848 44.1903709,15 50.5,15 C56.8096291,15 61.9410476,20.0670848 62,26.3558222 L62,42.6170618 C61.9893678,45.6466078 60.7717337,48.5478596 58.6149671,50.6825654 C56.4582006,52.8172712 53.5389756,54.0105641 50.499498,54 L50.499498,54 Z" id="形状备份" fill="#CAD5FF" fill-rule="nonzero"></path>
                        <path d="M50.499498,54 C44.1705008,54.021521 39.0221409,48.9253767 39,42.6170618 L39,26.3558222 C39.0589524,20.0670848 44.1903709,15 50.5,15 C56.8096291,15 61.9410476,20.0670848 62,26.3558222 L62,42.6170618 C61.9893678,45.6466078 60.7717337,48.5478596 58.6149671,50.6825654 C56.4582006,52.8172712 53.5389756,54.0105641 50.499498,54 L50.499498,54 Z" id="形状备份" fill="#CAD5FF" fill-rule="nonzero"></path>
                        <path d="M48.4998472,84 C46.5736307,84.0066218 45.0067385,82.4385775 45,80.4975575 L45,75.4940991 C45.017942,73.559103 46.5796781,72 48.5,72 C50.4203219,72 51.982058,73.559103 52,75.4940991 L52,80.4975575 C51.9967641,81.4297255 51.6261798,82.3224183 50.9697726,82.9792509 C50.3133654,83.6360834 49.4249056,84.0032505 48.4998472,84 L48.4998472,84 Z" id="形状备份" fill="#CAD5FF" fill-rule="nonzero" transform="translate(48.500000, 78.000011) rotate(-270.000000) translate(-48.500000, -78.000011) "></path>
                        <path d="M45.1813333,72.6852574 L47.3626667,72.6852574 C48.5592836,72.6852574 49.5293333,73.6511454 49.5293333,74.8426287 C49.5293333,76.034112 48.5592836,77 47.3626667,77 L38.636,77 C37.439383,77 36.4693333,76.034112 36.4693333,74.8426287 C36.4693333,73.6511454 37.439383,72.6852574 38.636,72.6852574 L40.8173333,72.6852574 L40.8173333,68.2735991 C30.0507957,67.3546548 21.1736844,59.4939007 19,48.9541733 L23.364,48.9541733 C25.6963268,57.8506923 33.76642,64.0578665 43.0006667,64.0578665 C52.2349134,64.0578665 60.3050065,57.8506923 62.6373333,48.9541733 L67,48.9541733 C64.8261715,59.4943391 55.948381,67.3552142 45.1813333,68.2735991 L45.1813333,72.6852574 Z M27.728,44.6394307 L27.728,23.0657178 C27.8062922,14.7224785 34.6211134,8 43.0006667,8 C51.3802199,8 58.1950411,14.7224785 58.2733333,23.0657178 L58.2733333,44.6394307 C58.2592132,48.6587156 56.6421245,52.5077932 53.7778135,55.3398977 C50.9135024,58.1720022 47.0366025,59.7551386 43,59.7412155 C34.5947249,59.769675 27.7574044,53.0086435 27.728,44.6394307 Z M53.9093333,23.0657178 C53.9093333,17.0665079 49.0250584,12.2031874 43,12.2031874 C36.9749416,12.2031874 32.0906667,17.0665079 32.0906667,23.0657178 L32.0906667,44.6394307 C32.0906667,50.6386406 36.9749416,55.5019611 43,55.5019611 C49.0250584,55.5019611 53.9093333,50.6386406 53.9093333,44.6394307 L53.9093333,23.0657178 Z" id="形状" fill="#2F54EB" fill-rule="nonzero"></path>
                    </g>
                </g>
            </g>
        </g>
    </g>
</svg>