<svg width="48" height="74" viewBox="0 0 48 74" xmlns="http://www.w3.org/2000/svg"><g fill-rule="nonzero" fill="none"><path d="M31.5 46c-6.33.022-11.478-5.075-11.5-11.383V18.356C20.059 12.067 25.19 7 31.5 7S42.941 12.067 43 18.356v16.261a11.404 11.404 0 0 1-3.385 8.066A11.48 11.48 0 0 1 31.499 46z" fill="#CAD5FF"/><path d="M31.5 46c-6.33.022-11.478-5.075-11.5-11.383V18.356C20.059 12.067 25.19 7 31.5 7S42.941 12.067 43 18.356v16.261a11.404 11.404 0 0 1-3.385 8.066A11.48 11.48 0 0 1 31.499 46zM23.5 70c-.007-1.926 1.561-3.493 3.502-3.5h5.004c1.935.018 3.494 1.58 3.494 3.5s-1.56 3.482-3.494 3.5h-5.004a3.528 3.528 0 0 1-2.481-1.03A3.474 3.474 0 0 1 23.5 70z" fill="#CAD5FF"/><path d="M26.181 64.685h2.182c1.196 0 2.166.966 2.166 2.158 0 1.191-.97 2.157-2.166 2.157h-8.727a2.162 2.162 0 0 1-2.167-2.157c0-1.192.97-2.158 2.167-2.158h2.181v-4.411C11.051 59.354 2.174 51.494 0 40.954h4.364c2.332 8.897 10.402 15.104 19.637 15.104 9.234 0 17.304-6.207 19.636-15.104H48c-2.174 10.54-11.052 18.401-21.819 19.32v4.411zM8.728 36.64V15.066C8.806 6.722 15.621 0 24.001 0c8.38 0 15.194 6.722 15.272 15.066v21.573a15.122 15.122 0 0 1-4.495 10.7A15.255 15.255 0 0 1 24 51.742C15.595 51.77 8.757 45.01 8.728 36.64zm26.181-21.573c0-6-4.884-10.863-10.909-10.863S13.09 9.067 13.09 15.066v21.573c0 6 4.885 10.863 10.91 10.863s10.91-4.863 10.91-10.863V15.066z" fill="#2F54EB"/></g></svg>