<svg width="99" height="73" viewBox="0 0 99 73" xmlns="http://www.w3.org/2000/svg" xmlns:xlink="http://www.w3.org/1999/xlink"><defs><path d="M0 10.781c8.159-3.756 16.825-6.627 25.998-8.614C39.758-.813 45.5 8.588 48 6.722 50.5 4.855 56.033 2.072 62.578 1 74.3-.92 86.287 2.673 98.536 11.781V71c-7.638-4.394-17.418-7.458-29.339-9.19-3.787-.55-6.706-.522-9.005-.135-8.553 1.438-8.52 7.835-12.692 7.835-5.726 0-3.745-10.822-21.502-5.102L0 72.781v-62z" id="a"/></defs><g fill="none" fill-rule="evenodd"><mask id="b" fill="#fff"><use xlink:href="#a"/></mask><path stroke="#2F54EB" stroke-width="2" d="M1 11.424v59.984l24.692-7.952c9.377-3.02 13.976-2.038 17.67 1.993.263.287 1.108 1.256 1.27 1.434 1.077 1.186 1.8 1.627 2.868 1.627.902 0 1.563-.38 2.477-1.355.185-.198 1.617-1.863 2.139-2.401 2.082-2.148 4.44-3.482 7.91-4.065 2.563-.431 5.63-.404 9.315.132 11.276 1.638 20.674 4.462 28.195 8.481V12.286C85.633 3.549 74.046.134 62.74 1.986c-5.532.907-11.085 3.256-14.14 5.537-.947.706-2 .554-3.45-.172-.525-.263-3.112-1.773-3.911-2.192C36.62 2.736 32.08 1.873 26.21 3.144 17.325 5.07 8.922 7.83 1 11.424z"/><path fill="#2F54EB" mask="url(#b)" d="M46 2h4v68h-4z"/><path fill="#2C55FF" mask="url(#b)" d="M71-13h42v98H71V17.567z"/></g></svg>