<?xml version="1.0" encoding="UTF-8"?>
<svg width="64px" height="55px" viewBox="0 0 64 55" version="1.1" xmlns="http://www.w3.org/2000/svg" xmlns:xlink="http://www.w3.org/1999/xlink">
    <!-- Generator: Sketch 55.2 (78181) - https://sketchapp.com -->
    <title>2</title>
    <desc>Created with Sketch.</desc>
    <g id="页面1" stroke="none" stroke-width="1" fill="none" fill-rule="evenodd">
        <g id="p002prompt" transform="translate(-653.000000, -1130.000000)">
            <g id="编组-18" transform="translate(649.000000, 1130.000000)">
                <g id="2" transform="translate(4.000000, 0.000000)">
                    <g id="编组-6">
                        <g id="a" transform="translate(22.000000, 4.000000)" fill="#CAD5FF" fill-rule="nonzero">
                            <path d="M13.3945946,29.025 L21.1135135,8.77499999 L28.8324325,29.025 L13.3945946,29.025 Z M17.9351352,0 L0,45 L7.26486485,45 L10.8972973,35.325 L31.1027027,35.325 L34.7351351,45 L42,45 L24.2918919,0 L17.9351352,0 Z" id="形状"></path>
                        </g>
                        <g id="a" fill="#2F54EB" fill-rule="nonzero">
                            <path d="M16.2648649,35.475 L25.6378378,10.725 L35.0108108,35.475 L16.2648649,35.475 Z M21.7783784,0 L0,55 L8.8216216,55 L13.2324324,43.175 L37.7675676,43.175 L42.1783784,55 L51,55 L29.4972973,0 L21.7783784,0 Z" id="形状"></path>
                        </g>
                    </g>
                </g>
            </g>
        </g>
    </g>
</svg>