<svg width="187" height="56" viewBox="0 0 187 56" xmlns="http://www.w3.org/2000/svg"><defs><filter x="-11.2%" y="-43.5%" width="122.3%" height="187%" filterUnits="objectBoundingBox" id="a"><feOffset dy="6" in="SourceAlpha" result="shadowOffsetOuter1"/><feGaussianBlur stdDeviation="2" in="shadowOffsetOuter1" result="shadowBlurOuter1"/><feColorMatrix values="0 0 0 0 0.778711347 0 0 0 0 0.796542139 0 0 0 0 0.868914176 0 0 0 1 0" in="shadowBlurOuter1" result="shadowMatrixOuter1"/><feMerge><feMergeNode in="shadowMatrixOuter1"/><feMergeNode in="SourceGraphic"/></feMerge></filter><linearGradient x1="50.269%" y1="47.353%" x2="50.27%" y2="53.586%" id="b"><stop stop-color="#032EDA" offset="0%"/><stop stop-color="#5E7DFF" offset="36.882%"/><stop stop-color="#4264F4" offset="100%"/></linearGradient><linearGradient x1="65.555%" y1="115.736%" x2="65.555%" y2="12.84%" id="c"><stop stop-color="#5D7CFF" offset="0%"/><stop stop-color="#2F54EB" offset="100%"/></linearGradient></defs><g filter="url(#a)" transform="translate(4)" fill="none" fill-rule="evenodd"><path d="M64.307 41.37c-2.1 0-4.786-.458-8.057-1.374V35.6c3.524 1.635 6.422 2.452 8.691 2.452 1.748 0 3.155-.458 4.219-1.374 1.064-.916 1.597-2.12 1.597-3.614 0-1.227-.35-2.27-1.047-3.13-.698-.859-1.984-1.817-3.86-2.874l-2.156-1.247c-2.665-1.522-4.543-2.956-5.636-4.302-1.093-1.346-1.639-2.914-1.639-4.704 0-2.41.874-4.393 2.622-5.95 1.748-1.558 3.976-2.337 6.683-2.337 2.41 0 4.955.402 7.634 1.205v4.06c-3.3-1.297-5.76-1.946-7.38-1.946-1.537 0-2.806.409-3.807 1.226-1 .818-1.501 1.847-1.501 3.087 0 1.043.366 1.966 1.1 2.769.732.803 2.072 1.762 4.017 2.875l2.242 1.268c2.706 1.537 4.596 2.988 5.667 4.355 1.071 1.367 1.607 3.01 1.607 4.926 0 2.72-1.004 4.904-3.013 6.553-2.01 1.649-4.67 2.473-7.983 2.473zm17.192-.782V9.301h4.44V37.27h14.084v3.32H81.5zm30.536 0V12.62h-11.102V9.301h26.645v3.32h-11.102v27.967h-4.441zm19.941 0V9.301h17.488v3.32h-13.047v10.04h10.933v3.277h-10.933V37.27h13.957v3.32h-18.398zm23.473 0V9.301h4.166v15.39l12.666-15.39h4.462l-12.265 14.925 14.444 16.362h-5.625l-13.682-15.855v15.855h-4.166z" fill="url(#b)" fill-rule="nonzero"/><path d="M13.5 12.51c-11.987-8.055.232-1.588.776-2.004C17.774 7.835 4.619 2.966.456.494-1.3-.548 2.326.101 6.1 2.036c9.137 4.689 13.565 5.061 13.3 4.689C18.78 5.858 7.042.712 7.664.495c.659-.232 13.14 4.608 13.878 4.608 2.375 0 4.738 1.676 5.398 3.09h.107l-.093.03c.291.646.222 1.235-.372 1.577-.985.567 8.213 1.432 9.214.34.718-.783 1.273 1.427 1.115 1.705-.303.533-.902-.697-6.625.376-2.131.4-1.255 1.159.33 1.159 3.924 0 5.618.185 4.257.952-4.045 2.276-10.326-1.08-16.364.384-.653.158-1.303.373-1.948.658-.808.832-1.53 1.67-2.165 2.51-1.505 1.994-2.667 4.237-3.204 6.582.278-.074.566-.126.863-.155 3.38-.326 6.68 2.542 7.372 6.405.556 3.106-.744 5.91-3.031 7.06 4.517 3.875 9.63 4.352 13.42 3.579-.416-.068-.843-.161-1.282-.279-5.304-1.427-8.459-6.873-7.046-12.165 1.413-5.292 6.858-8.426 12.162-7 1.282.346 2.515.88 3.608 1.58a8.854 8.854 0 0 0-2.67-.267c-2.234.097-4.15.463-5.719 1.062-2.93 1.12-5.384 3.413-5.119 7.055.4 5.507 4.319 7.751 6.858 8.154.358.057.78.066 1.247.026a5.184 5.184 0 0 0 3.21-2.016c1.028-1.39 1.276-3.137.826-4.725a5.64 5.64 0 0 1 1.109 4.208c2.866-3.142 5.575-7.86 6.307-13 0 1.98-.27 3.975-.393 5.59-.637 8.28-4.413 13.21-12.235 15.596-9.933 3.031-20.447-2.548-23.484-12.46a18.805 18.805 0 0 1-.764-3.97 5.889 5.889 0 0 1-4.756-2.3c-2.003-2.583-1.574-6.293.958-8.287a5.716 5.716 0 0 1 3.4-1.23c-.427.18-.839.419-1.221.72-2.306 1.816-2.696 5.195-.872 7.548a5.39 5.39 0 0 0 2.43 1.775A18.807 18.807 0 0 1 13.5 12.51zm1.405 23.834c1.457-1.258 2.202-3.4 1.785-5.728-.548-3.063-2.924-5.432-5.578-5.77-.62 3.114-.121 6.394 2.145 9.5.533.73 1.084 1.394 1.648 1.998z" fill="url(#c)"/></g></svg>