<?xml version="1.0" encoding="UTF-8"?>
<svg width="14px" height="25px" viewBox="0 0 14 25" version="1.1" xmlns="http://www.w3.org/2000/svg" xmlns:xlink="http://www.w3.org/1999/xlink">
    <!-- Generator: Sketch 55.2 (78181) - https://sketchapp.com -->
    <title>定位</title>
    <desc>Created with Sketch.</desc>
    <defs>
        <linearGradient x1="50%" y1="43.4792243%" x2="50%" y2="125.424427%" id="linearGradient-1">
            <stop stop-color="#0200F0" offset="0%"></stop>
            <stop stop-color="#4E8BFF" offset="100%"></stop>
        </linearGradient>
        <linearGradient x1="50%" y1="115.67377%" x2="50%" y2="50%" id="linearGradient-2">
            <stop stop-color="#BDBCFF" offset="0%"></stop>
            <stop stop-color="#FFFFFF" offset="100%"></stop>
        </linearGradient>
        <linearGradient x1="50%" y1="91.1068404%" x2="50%" y2="50%" id="linearGradient-3">
            <stop stop-color="#2845F8" offset="0%"></stop>
            <stop stop-color="#FFFFFF" offset="100%"></stop>
        </linearGradient>
    </defs>
    <g id="页面1" stroke="none" stroke-width="1" fill="none" fill-rule="evenodd">
        <g id="s001解决方案" transform="translate(-117.000000, -519.000000)">
            <g id="定位" transform="translate(116.000000, 519.000000)">
                <g>
                    <rect id="矩形" fill="#000000" fill-rule="nonzero" opacity="0" x="0" y="0" width="16" height="16"></rect>
                    <path d="M8.00161144,5.00188854 C8.79268671,5.00304164 9.47300031,5.56235131 9.62711146,6.33827087 C9.7812226,7.11419043 9.36629244,7.8910346 8.63570251,8.19441517 C7.90511258,8.49779573 7.06194772,8.24338085 6.62109559,7.5865317 C6.18024345,6.92968256 6.26424937,6.05298596 6.82181422,5.49180609 C7.13396397,5.17763249 7.5587321,5.00124573 8.00161144,5.00188854 L8.00161144,5.00188854 Z M8.00161144,4.0020335 C6.72815509,4.00399326 5.63336768,4.9051417 5.3866837,6.15447825 C5.13999972,7.4038148 5.81011141,8.65344608 6.98726262,9.13925451 C8.16441382,9.62506295 9.52081207,9.21176912 10.2270545,8.15209163 C10.933297,7.09241414 10.7927216,5.68143342 9.89128666,4.78192811 C9.39107901,4.27965668 8.71046503,3.99876837 8.00161144,4.0020335 L8.00161144,4.0020335 Z" id="形状" fill="#1615FF" fill-rule="nonzero"></path>
                    <path d="M12.5808244,1.94241614 C11.380815,0.70100239 9.72820655,-4.81038964e-06 8.00161145,-4.81038964e-06 C6.27501634,-4.81038964e-06 4.6224079,0.70100239 3.4223985,1.94241614 C0.896764453,4.55454649 0.896764453,8.6986756 3.4223985,11.310806 L8.00161144,15.9999952 L12.5808244,11.310806 C15.1064584,8.6986756 15.1064584,4.55454649 12.5808244,1.94241614 Z M8.00161144,14.650232 L4.11227992,10.6509194 C1.96492126,8.43646361 1.96492126,4.91674131 4.11227992,2.70228555 C5.13285484,1.6503868 6.53598388,1.05673053 8.00161145,1.05673053 C9.46723901,1.05673053 10.870368,1.6503868 11.890943,2.70228555 C14.0383016,4.91674131 14.0383016,8.43646361 11.890943,10.6509194 L8.00161144,14.650232 Z" id="形状" fill="url(#linearGradient-1)" fill-rule="nonzero"></path>
                </g>
                <g id="定位备份" transform="translate(8.000000, 21.000000) rotate(-180.000000) translate(-8.000000, -21.000000) translate(0.000000, 17.000000)">
                    <rect id="矩形" fill="#000000" fill-rule="nonzero" opacity="0" x="0" y="0" width="16" height="8"></rect>
                    <path d="M8.00161144,2.50094427 C8.79268671,2.50152082 9.47300031,2.78117565 9.62711146,3.16913544 C9.7812226,3.55709522 9.36629244,3.9455173 8.63570251,4.09720758 C7.90511258,4.24889787 7.06194772,4.12169043 6.62109559,3.79326585 C6.18024345,3.46484128 6.26424937,3.02649298 6.82181422,2.74590305 C7.13396397,2.58881625 7.5587321,2.50062286 8.00161144,2.50094427 L8.00161144,2.50094427 Z M8.00161144,2.00101675 C6.72815509,2.00199663 5.63336768,2.45257085 5.3866837,3.07723913 C5.13999972,3.7019074 5.81011141,4.32672304 6.98726262,4.56962726 C8.16441382,4.81253148 9.52081207,4.60588456 10.2270545,4.07604581 C10.933297,3.54620707 10.7927216,2.84071671 9.89128666,2.39096405 C9.39107901,2.13982834 8.71046503,1.99938419 8.00161144,2.00101675 L8.00161144,2.00101675 Z" id="形状" fill="url(#linearGradient-2)" fill-rule="nonzero"></path>
                    <path d="M12.5808244,0.97120807 C11.380815,0.350501195 9.72820655,-2.40519512e-06 8.00161145,-2.40519512e-06 C6.27501634,-2.40519512e-06 4.6224079,0.350501195 3.4223985,0.97120807 C0.896764453,2.27727325 0.896764453,4.3493378 3.4223985,5.65540298 L8.00161144,7.99999759 L12.5808244,5.65540298 C15.1064584,4.3493378 15.1064584,2.27727325 12.5808244,0.97120807 Z M8.00161144,7.32511599 L4.11227992,5.32545969 C1.96492126,4.21823181 1.96492126,2.45837065 4.11227992,1.35114277 C5.13285484,0.825193399 6.53598388,0.528365266 8.00161145,0.528365266 C9.46723901,0.528365266 10.870368,0.825193399 11.890943,1.35114277 C14.0383016,2.45837065 14.0383016,4.21823181 11.890943,5.32545969 L8.00161144,7.32511599 Z" id="形状" fill="url(#linearGradient-3)" fill-rule="nonzero"></path>
                </g>
            </g>
        </g>
    </g>
</svg>