<svg width="14" height="25" viewBox="0 0 14 25" xmlns="http://www.w3.org/2000/svg"><defs><linearGradient x1="50%" y1="43.479%" x2="50%" y2="125.424%" id="a"><stop stop-color="#0200F0" offset="0%"/><stop stop-color="#4E8BFF" offset="100%"/></linearGradient><linearGradient x1="50%" y1="115.674%" x2="50%" y2="50%" id="b"><stop stop-color="#BDBCFF" offset="0%"/><stop stop-color="#FFF" offset="100%"/></linearGradient><linearGradient x1="50%" y1="91.107%" x2="50%" y2="50%" id="c"><stop stop-color="#2845F8" offset="0%"/><stop stop-color="#FFF" offset="100%"/></linearGradient></defs><g fill-rule="nonzero" fill="none"><path d="M7.002 5.002a1.66 1.66 0 1 1-.005 3.32 1.66 1.66 0 0 1 .005-3.32zm0-1a2.67 2.67 0 1 0 .008 5.34 2.67 2.67 0 0 0-.008-5.34z" fill="#1615FF"/><path d="M12.58 1.942a6.369 6.369 0 0 0-9.158 0 6.739 6.739 0 0 0 0 9.369L8.002 16l4.579-4.69a6.739 6.739 0 0 0 0-9.368zM8.003 14.65l-3.89-4a5.709 5.709 0 0 1 0-7.948 5.42 5.42 0 0 1 7.779 0 5.709 5.709 0 0 1 0 7.949l-3.89 4z" fill="url(#a)" transform="translate(-1)"/><g><path d="M8.002 2.5c.79.002 1.471.281 1.625.67.154.387-.26.776-.991.927-.73.152-1.574.025-2.015-.304-.44-.328-.357-.767.2-1.047.313-.157.738-.245 1.18-.245zm0-.499c-1.274.001-2.369.452-2.615 1.076-.247.625.423 1.25 1.6 1.493 1.177.243 2.534.036 3.24-.494.706-.53.566-1.235-.336-1.685-.5-.251-1.18-.392-1.89-.39z" fill="url(#b)" transform="rotate(-180 7.5 12.5)"/><path d="M12.58.971C11.38.351 9.729 0 8.003 0c-1.727 0-3.38.35-4.58.971-2.525 1.306-2.525 3.378 0 4.684L8.002 8l4.579-2.345c2.525-1.306 2.525-3.378 0-4.684zM8.003 7.325l-3.89-2c-2.147-1.107-2.147-2.867 0-3.974C5.132.825 6.536.528 8.002.528c1.465 0 2.868.297 3.889.823 2.147 1.107 2.147 2.867 0 3.974l-3.89 2z" fill="url(#c)" transform="rotate(-180 7.5 12.5)"/></g></g></svg>