<svg width="104" height="104" viewBox="0 0 104 104" xmlns="http://www.w3.org/2000/svg" xmlns:xlink="http://www.w3.org/1999/xlink"><defs><linearGradient x1="50%" y1="0%" x2="50%" y2="100%" id="c"><stop stop-color="#8481FF" offset="0%"/><stop stop-color="#7BABFF" offset="64.783%"/><stop stop-color="#77C1FF" offset="100%"/></linearGradient><circle id="a" cx="47" cy="47" r="47"/><filter x="-6.4%" y="-6.4%" width="112.8%" height="112.8%" filterUnits="objectBoundingBox" id="b"><feMorphology radius="3" operator="dilate" in="SourceAlpha" result="shadowSpreadOuter1"/><feOffset in="shadowSpreadOuter1" result="shadowOffsetOuter1"/><feGaussianBlur stdDeviation="1" in="shadowOffsetOuter1" result="shadowBlurOuter1"/><feComposite in="shadowBlurOuter1" in2="SourceAlpha" operator="out" result="shadowBlurOuter1"/><feColorMatrix values="0 0 0 0 0.733497509 0 0 0 0 0.733497509 0 0 0 0 0.733497509 0 0 0 1 0" in="shadowBlurOuter1"/></filter><linearGradient x1="83.714%" y1="50%" x2="37.337%" y2="45.476%" id="e"><stop stop-color="#F6F6F6" offset="0%"/><stop stop-color="#B2B2B2" offset="100%"/></linearGradient><path d="M40 60h15c12.15 0 22 9.85 22 22s-9.85 22-22 22H40c-12.15 0-22-9.85-22-22s9.85-22 22-22z" id="f"/><filter x="-20.3%" y="-27.3%" width="140.7%" height="154.5%" filterUnits="objectBoundingBox" id="g"><feGaussianBlur stdDeviation="12" in="SourceAlpha" result="shadowBlurInner1"/><feOffset in="shadowBlurInner1" result="shadowOffsetInner1"/><feComposite in="shadowOffsetInner1" in2="SourceAlpha" operator="arithmetic" k2="-1" k3="1" result="shadowInnerInner1"/><feColorMatrix values="0 0 0 0 0.677649457 0 0 0 0 0.677649457 0 0 0 0 0.677649457 0 0 0 0.5 0" in="shadowInnerInner1"/></filter><rect id="i" width="4" height="12" rx="2"/><filter x="-187.5%" y="-62.5%" width="475%" height="225%" filterUnits="objectBoundingBox" id="h"><feOffset in="SourceAlpha" result="shadowOffsetOuter1"/><feGaussianBlur stdDeviation="2.5" in="shadowOffsetOuter1" result="shadowBlurOuter1"/><feColorMatrix values="0 0 0 0 0.183952561 0 0 0 0 0.416168488 0 0 0 0 0.688575634 0 0 0 1 0" in="shadowBlurOuter1"/></filter><rect id="k" x="19" width="4" height="12" rx="2"/><filter x="-187.5%" y="-62.5%" width="475%" height="225%" filterUnits="objectBoundingBox" id="j"><feOffset in="SourceAlpha" result="shadowOffsetOuter1"/><feGaussianBlur stdDeviation="2.5" in="shadowOffsetOuter1" result="shadowBlurOuter1"/><feColorMatrix values="0 0 0 0 0.183952561 0 0 0 0 0.416168488 0 0 0 0 0.688575634 0 0 0 1 0" in="shadowBlurOuter1"/></filter></defs><g transform="translate(5 5)" fill="none" fill-rule="evenodd"><mask id="d" fill="#fff"><use xlink:href="#a"/></mask><use fill="#000" filter="url(#b)" xlink:href="#a"/><circle stroke="url(#c)" stroke-width="3" fill="#FFF" cx="47" cy="47" r="48.5"/><g mask="url(#d)"><use fill="url(#e)" xlink:href="#f"/><use fill="#000" filter="url(#g)" xlink:href="#f"/></g><path d="M36.923 8.928C44.713 6.976 48.615 6 48.629 6c.013 0 3.312.891 9.9 2.673A25 25 0 0 1 77 32.805V40c0 13.807-11.193 25-25 25h-9c-13.807 0-25-11.193-25-25v-6.821a25 25 0 0 1 18.923-24.25z" fill="#E0E0E0" mask="url(#d)"/><path d="M27 26h41a3 3 0 0 1 3 3v20a3 3 0 0 1-3 3H27a3 3 0 0 1-3-3V29a3 3 0 0 1 3-3z" fill="#232323" mask="url(#d)"/><g mask="url(#d)"><g transform="translate(36 32)"><use fill="#000" filter="url(#h)" xlink:href="#i"/><use fill="#1D85FF" xlink:href="#i"/></g><g transform="translate(36 32)"><use fill="#000" filter="url(#j)" xlink:href="#k"/><use fill="#1D85FF" xlink:href="#k"/></g></g></g></svg>