<svg width="17" height="19" viewBox="0 0 17 19" xmlns="http://www.w3.org/2000/svg"><defs><linearGradient x1="25.789%" y1="88.048%" x2="63.491%" y2="25.498%" id="a"><stop stop-color="#75ADFF" offset="0%"/><stop stop-color="#4666FF" offset="100%"/></linearGradient></defs><path d="M10.058 12.636a7.656 7.656 0 0 0 3.442.81c1.24 0 2.41-.292 3.442-.81H22v9.5a.875.875 0 0 1-.886.864H5v-9.5c0-.477.397-.864.886-.864h4.172zM6.412 10.91C6.412 7.093 9.585 4 13.5 4s7.088 3.093 7.088 6.91H17.93c0-2.386-1.983-4.32-4.43-4.32-2.447 0-4.43 1.934-4.43 4.32H6.412z" fill="url(#a)" transform="translate(-5 -4)" fill-rule="evenodd"/></svg>